<?xml version="1.0" encoding="UTF-8" standalone="no"?>
<svg
   height="164.99989"
   width="421.12677"
   version="1.1"
   id="svg32"
   sodipodi:docname="logo.svg"
   inkscape:version="1.1.1 (3bf5ae0d25, 2021-09-20)"
   xmlns:inkscape="http://www.inkscape.org/namespaces/inkscape"
   xmlns:sodipodi="http://sodipodi.sourceforge.net/DTD/sodipodi-0.dtd"
   xmlns="http://www.w3.org/2000/svg"
   xmlns:svg="http://www.w3.org/2000/svg">
  <sodipodi:namedview
     id="namedview34"
     pagecolor="#ffffff"
     bordercolor="#666666"
     borderopacity="1.0"
     inkscape:pageshadow="2"
     inkscape:pageopacity="0.0"
     inkscape:pagecheckerboard="0"
     showgrid="false"
     inkscape:zoom="1.5690045"
     inkscape:cx="153.91925"
     inkscape:cy="82.217737"
     inkscape:window-width="920"
     inkscape:window-height="856"
     inkscape:window-x="0"
     inkscape:window-y="0"
     inkscape:window-maximized="1"
     inkscape:current-layer="svg32"
     width="720px"
     fit-margin-top="0"
     fit-margin-left="0"
     fit-margin-right="0"
     fit-margin-bottom="0" />
  <defs
     id="defs2" />
  <g
     transform="translate(-495.31113,-146.99861)"
     id="g30">
    <g
       id="g16">
      <g
         transform="matrix(1.421201,0,0,1.4212,495.31113,147.00003)"
         id="g14">
        <g
           id="g12">
          <path
             fill="#41b7b4"
             d="m 95.802,45.226 c -19.57,0 -35.435,15.865 -35.435,35.435 0,19.571 15.864,35.437 35.435,35.437 19.572,0 35.438,-15.865 35.438,-35.437 -0.001,-19.57 -15.866,-35.435 -35.438,-35.435 z m 0,59.302 c -13.181,0 -23.866,-10.685 -23.866,-23.867 0,-13.181 10.686,-23.866 23.866,-23.866 13.18,0 23.868,10.685 23.868,23.866 0,13.183 -10.688,23.867 -23.868,23.867 z"
             id="path4" />
          <circle
             fill="#79bd82"
             r="21.791"
             cy="64.305"
             cx="21.791"
             id="circle6" />
          <circle
             fill="#d0d736"
             r="15.63"
             cy="15.629"
             cx="66.586998"
             id="circle8" />
          <circle
             fill="#2dacdf"
             r="13.259"
             cy="80.661003"
             cx="95.803001"
             id="circle10" />
        </g>
      </g>
    </g>
    <g
       id="g22">
      <g
         transform="translate(701.8295,232.4355)"
         id="g20">
        <text
           dx="0 0 0 0 0 0 0 0"
           fill="#2dacdf"
           font-size="62px"
           font-family="Roboto"
           alignment-baseline="auto"
           dominant-baseline="auto"
           id="text18">accot.fr</text>
      </g>
    </g>
    <g
       id="g28">
      <g
         transform="translate(701.8295,281.56453)"
         id="g26">
        <text
           dx="0 0 0 0"
           fill="#d0d736"
           font-size="34px"
           font-family="Roboto"
           alignment-baseline="auto"
           dominant-baseline="auto"
           id="text24">beta</text>
      </g>
    </g>
  </g>
</svg>
